<?xml version="1.0" encoding="UTF-8" standalone="no"?>
<!DOCTYPE svg PUBLIC "-//W3C//DTD SVG 1.1//EN" "http://www.w3.org/Graphics/SVG/1.1/DTD/svg11.dtd">
<svg width="100%" height="100%" viewBox="0 0 1024 1024" version="1.1" xmlns="http://www.w3.org/2000/svg" xmlns:xlink="http://www.w3.org/1999/xlink" xml:space="preserve" xmlns:serif="http://www.serif.com/" style="fill-rule:evenodd;clip-rule:evenodd;stroke-linejoin:round;stroke-miterlimit:2;">
    <g>
        <path d="M445.28,250.13C486.4,241.88 490.03,247.55 490.06,243C490.26,207.72 490.74,207.72 489.69,204.85C489.44,204.16 489.28,204.27 481.6,200.51C481.41,200.4 481.21,200.28 481.02,200.16C481.93,200.38 481.99,200.66 483.23,200.96C481.99,200.66 481.93,200.38 481.02,200.16C452.85,182.53 449.4,151.15 457.22,128.97C472.15,86.6 534.14,76.18 561.46,118.92C569.39,131.33 570.76,149.57 569.58,157.05C564.13,191.7 540.97,200.8 534.21,203.83C533,204.37 533.02,209.51 533.03,210.01C533.16,243.61 532.4,245.2 535.28,245.38C539.39,245.65 568.1,247.5 586.37,251.83C767.16,294.61 844.13,447.29 843.59,572.01C843.42,611.21 841.72,749.65 667.02,868.55C551.82,946.95 499.07,940.68 438.15,915.47C373.2,888.59 311.88,835.4 305.61,829.68C276.4,802.96 206.42,738.7 186.57,634.95C151.27,450.41 272.32,291.34 426.39,254.32M346.91,384.51C321.51,404.7 280.24,455.71 267.97,516.94C238.55,663.69 337.87,788.26 470.37,809.78C601.22,831.03 736.19,748.43 758.65,603.07C768.54,539.06 746.76,486.56 742.87,477.19C678.17,321.19 482.45,276.77 353.98,378.57" style="fill:rgb(38,78,155);fill-opacity:1;"/>
        <path d="M651.44,583.41L650.59,583.41L648.75,584.54L645.1,585.35L636.49,585.35C635.69,585.56 630.94,583.68 630.26,584.23C573.14,564.14 594.33,450.05 652.16,469.51C688.72,481.81 698.36,563.51 651.44,583.41Z" style="fill:rgb(38,78,155);fill-opacity:1;"/>
        <path d="M342.84,507.94C348.16,477.28 374.16,463.37 390.38,467.74C428.49,478.03 430.12,527.7 424.45,547.06C414.66,580.53 395.62,583.51 387.37,585.35C386.86,584.87 376.23,584.49 376.23,584.49C374.97,584.25 368.08,582.98 361.66,577.58C338.32,557.97 340.84,526.01 340.86,524.01C341.57,521.68 341.08,518.31 341.8,515.98C341.8,515.98 342.87,508.02 342.84,507.94Z" style="fill:rgb(38,78,155);fill-opacity:1;"/>
        <path d="M508.21,658.91L495.6,657.71C496.08,657.72 548.3,661.66 590.22,640.83C615.57,628.23 618.45,655.51 607.99,662.54C561.99,693.46 469.7,694.47 419.57,665.57C397.8,653.02 415.32,633.21 427.28,638.12C441.51,643.97 443.33,646.62 461.93,651.39C463.67,651.84 473.47,654.28 484.05,656.08C496.12,658.13 508.21,658.91 508.21,658.91Z" style="fill:rgb(38,78,155);fill-opacity:0.99;"/>
    </g>
</svg>
